REM DIRINDEX 1\2,1\3,1\4,1\5
REM DIRNAME cjc046,folder01,folder02,folder03,folder04
TITLE ""
FILE "128.mp3" MP3
  TRACK 01 AUDIO
    TITLE "0:"
    INDEX 01 00:00:00
  TRACK 02 AUDIO
    TITLE "2:cjc046_3231"
    INDEX 01 00:00:13
  TRACK 03 AUDIO
    TITLE "0:"
    INDEX 01 00:01:19
  TRACK 04 AUDIO
    TITLE "3:cjc046_3232"
    INDEX 01 00:01:38
  TRACK 05 AUDIO
    TITLE "0:"
    INDEX 01 00:02:73
  TRACK 06 AUDIO
    TITLE "4:cjc046_3233"
    INDEX 01 00:03:14
  TRACK 07 AUDIO
    TITLE "0:"
    INDEX 01 00:04:19
  TRACK 08 AUDIO
    TITLE "2:cjc046_3234"
    INDEX 01 00:05:22
  TRACK 09 AUDIO
    TITLE "0:"
    INDEX 01 00:06:31
  TRACK 10 AUDIO
    TITLE "3:cjc046_3235"
    INDEX 01 00:06:47
  TRACK 11 AUDIO
    TITLE "0:"
    INDEX 01 00:07:41
  TRACK 12 AUDIO
    TITLE "4:cjc046_3236"
    INDEX 01 00:07:52
  TRACK 13 AUDIO
    TITLE "0:"
    INDEX 01 00:08:62
  TRACK 14 AUDIO
    TITLE "2:cjc046_3237"
    INDEX 01 00:09:59
  TRACK 15 AUDIO
    TITLE "0:"
    INDEX 01 00:10:68
  TRACK 16 AUDIO
    TITLE "3:cjc046_3238"
    INDEX 01 00:11:05
  TRACK 17 AUDIO
    TITLE "0:"
    INDEX 01 00:12:34
  TRACK 18 AUDIO
    TITLE "4:cjc046_3239"
    INDEX 01 00:12:50
  TRACK 19 AUDIO
    TITLE "0:"
    INDEX 01 00:13:55
  TRACK 20 AUDIO
    TITLE "2:cjc046_3240"
    INDEX 01 00:14:66
  TRACK 21 AUDIO
    TITLE "0:"
    INDEX 01 00:15:64
  TRACK 22 AUDIO
    TITLE "3:cjc046_3241"
    INDEX 01 00:16:06
  TRACK 23 AUDIO
    TITLE "0:"
    INDEX 01 00:17:10
  TRACK 24 AUDIO
    TITLE "4:cjc046_3242"
    INDEX 01 00:17:12
  TRACK 25 AUDIO
    TITLE "0:"
    INDEX 01 00:18:07
  TRACK 26 AUDIO
    TITLE "2:cjc046_3243"
    INDEX 01 00:19:16
  TRACK 27 AUDIO
    TITLE "0:"
    INDEX 01 00:20:39
  TRACK 28 AUDIO
    TITLE "3:cjc046_3244"
    INDEX 01 00:20:57
  TRACK 29 AUDIO
    TITLE "0:"
    INDEX 01 00:22:17
  TRACK 30 AUDIO
    TITLE "4:cjc046_3245"
    INDEX 01 00:22:29
  TRACK 31 AUDIO
    TITLE "0:"
    INDEX 01 00:23:51
  TRACK 32 AUDIO
    TITLE "2:cjc046_3246"
    INDEX 01 00:24:59
  TRACK 33 AUDIO
    TITLE "0:"
    INDEX 01 00:26:07
  TRACK 34 AUDIO
    TITLE "3:cjc046_3247"
    INDEX 01 00:26:26
  TRACK 35 AUDIO
    TITLE "0:"
    INDEX 01 00:27:47
  TRACK 36 AUDIO
    TITLE "4:cjc046_3248"
    INDEX 01 00:27:59
  TRACK 37 AUDIO
    TITLE "0:"
    INDEX 01 00:29:07
  TRACK 38 AUDIO
    TITLE "2:cjc046_3249"
    INDEX 01 00:30:18
  TRACK 39 AUDIO
    TITLE "0:"
    INDEX 01 00:31:29
  TRACK 40 AUDIO
    TITLE "3:cjc046_3250"
    INDEX 01 00:31:47
  TRACK 41 AUDIO
    TITLE "0:"
    INDEX 01 00:33:13
  TRACK 42 AUDIO
    TITLE "4:cjc046_3251"
    INDEX 01 00:33:30
  TRACK 43 AUDIO
    TITLE "0:"
    INDEX 01 00:34:42
  TRACK 44 AUDIO
    TITLE "2:cjc046_3252"
    INDEX 01 00:35:43
  TRACK 45 AUDIO
    TITLE "0:"
    INDEX 01 00:36:52
  TRACK 46 AUDIO
    TITLE "3:cjc046_3253"
    INDEX 01 00:36:74
  TRACK 47 AUDIO
    TITLE "0:"
    INDEX 01 00:39:05
  TRACK 48 AUDIO
    TITLE "4:cjc046_3254"
    INDEX 01 00:39:15
  TRACK 49 AUDIO
    TITLE "0:"
    INDEX 01 00:40:26
  TRACK 50 AUDIO
    TITLE "2:cjc046_3255"
    INDEX 01 00:41:34
  TRACK 51 AUDIO
    TITLE "0:"
    INDEX 01 00:42:43
  TRACK 52 AUDIO
    TITLE "3:cjc046_3256"
    INDEX 01 00:42:63
  TRACK 53 AUDIO
    TITLE "0:"
    INDEX 01 00:44:50
  TRACK 54 AUDIO
    TITLE "4:cjc046_3257"
    INDEX 01 00:44:65
  TRACK 55 AUDIO
    TITLE "0:"
    INDEX 01 00:45:73
  TRACK 56 AUDIO
    TITLE "2:cjc046_3258"
    INDEX 01 00:47:09
  TRACK 57 AUDIO
    TITLE "0:"
    INDEX 01 00:48:22
  TRACK 58 AUDIO
    TITLE "3:cjc046_3259"
    INDEX 01 00:48:38
  TRACK 59 AUDIO
    TITLE "0:"
    INDEX 01 00:49:74
  TRACK 60 AUDIO
    TITLE "4:cjc046_3260"
    INDEX 01 00:50:17
  TRACK 61 AUDIO
    TITLE "0:"
    INDEX 01 00:51:28
  TRACK 62 AUDIO
    TITLE "2:cjc046_3261"
    INDEX 01 00:52:37
  TRACK 63 AUDIO
    TITLE "0:"
    INDEX 01 00:53:37
  TRACK 64 AUDIO
    TITLE "3:cjc046_3262"
    INDEX 01 00:53:57
  TRACK 65 AUDIO
    TITLE "0:"
    INDEX 01 00:55:26
  TRACK 66 AUDIO
    TITLE "4:cjc046_3263"
    INDEX 01 00:55:42
  TRACK 67 AUDIO
    TITLE "0:"
    INDEX 01 00:56:43
  TRACK 68 AUDIO
    TITLE "2:cjc046_3264"
    INDEX 01 00:57:48
  TRACK 69 AUDIO
    TITLE "0:"
    INDEX 01 00:58:46
  TRACK 70 AUDIO
    TITLE "3:cjc046_3265"
    INDEX 01 00:58:69
  TRACK 71 AUDIO
    TITLE "0:"
    INDEX 01 00:59:67
  TRACK 72 AUDIO
    TITLE "4:cjc046_3266"
    INDEX 01 01:00:08
  TRACK 73 AUDIO
    TITLE "0:"
    INDEX 01 01:01:07
  TRACK 74 AUDIO
    TITLE "2:cjc046_3267"
    INDEX 01 01:02:12
  TRACK 75 AUDIO
    TITLE "0:"
    INDEX 01 01:03:10
  TRACK 76 AUDIO
    TITLE "3:cjc046_3268"
    INDEX 01 01:03:29
  TRACK 77 AUDIO
    TITLE "0:"
    INDEX 01 01:05:38
  TRACK 78 AUDIO
    TITLE "4:cjc046_3269"
    INDEX 01 01:05:44
  TRACK 79 AUDIO
    TITLE "0:"
    INDEX 01 01:06:43
